<svg xmlns="http://www.w3.org/2000/svg" width="172" height="60" viewBox="0 0 172 60"><g fill="none" transform="translate(0 17)"><path fill="#1355E9" d="M118.930833,24.1796723 C118.930833,24.9661969 118.3575,25.5650281 117.569167,25.5650281 C116.780833,25.5650281 116.198542,24.9423628 116.198542,24.1796723 C116.198542,23.4169818 116.79875,22.7764409 117.569167,22.7764409 C118.339583,22.7764409 118.930833,23.4110233 118.930833,24.1796723 Z M116.461319,24.1796723 C116.461319,24.8023376 116.939097,25.323708 117.569167,25.323708 C118.199236,25.323708 118.677014,24.8291509 118.677014,24.1796723 C118.677014,23.5301937 118.193264,23.0237195 117.569167,23.0237195 C116.945069,23.0237195 116.461319,23.54509 116.461319,24.1796723 Z M117.040625,23.4229403 L117.602014,23.4229403 C117.82,23.4229403 118.157431,23.4855048 118.157431,23.854933 C118.157431,24.1349834 117.948403,24.2362782 117.757292,24.2601123 L118.247014,24.9095909 L117.9275,24.9095909 L117.461667,24.2750086 L117.315347,24.2750086 L117.315347,24.9095909 L117.040625,24.9095909 L117.040625,23.4229403 L117.040625,23.4229403 Z M117.315347,23.6583018 L117.315347,24.0575226 L117.590069,24.0575226 C117.736389,24.0575226 117.870764,24.0307093 117.870764,23.854933 C117.870764,23.6791566 117.736389,23.6583018 117.590069,23.6583018 L117.315347,23.6583018 Z M145.692361,24.1796723 C145.692361,24.9661969 145.119028,25.5650281 144.330694,25.5650281 C143.542361,25.5650281 142.960069,24.9423628 142.960069,24.1796723 C142.960069,23.4169818 143.560278,22.7764409 144.330694,22.7764409 C145.101111,22.7764409 145.692361,23.4110233 145.692361,24.1796723 Z M143.222847,24.1796723 C143.222847,24.8023376 143.700625,25.323708 144.330694,25.323708 C144.960764,25.323708 145.438542,24.8291509 145.438542,24.1796723 C145.438542,23.5301937 144.954792,23.0237195 144.330694,23.0237195 C143.706597,23.0237195 143.222847,23.54509 143.222847,24.1796723 Z M143.802153,23.4229403 L144.363542,23.4229403 C144.581528,23.4229403 144.918958,23.4855048 144.918958,23.854933 C144.918958,24.1349834 144.709931,24.2362782 144.518819,24.2601123 L145.008542,24.9095909 L144.689028,24.9095909 L144.223194,24.2750086 L144.076875,24.2750086 L144.076875,24.9095909 L143.802153,24.9095909 L143.802153,23.4229403 L143.802153,23.4229403 Z M144.076875,23.6583018 L144.076875,24.0575226 L144.351597,24.0575226 C144.497917,24.0575226 144.632292,24.0307093 144.632292,23.854933 C144.632292,23.6791566 144.497917,23.6583018 144.351597,23.6583018 L144.076875,23.6583018 Z M169.533472,24.1796723 C169.533472,24.9661969 168.960139,25.5650281 168.171806,25.5650281 C167.383472,25.5650281 166.801181,24.9423628 166.801181,24.1796723 C166.801181,23.4169818 167.401389,22.7764409 168.171806,22.7764409 C168.942222,22.7764409 169.533472,23.4110233 169.533472,24.1796723 Z M167.063958,24.1796723 C167.063958,24.8023376 167.541736,25.323708 168.171806,25.323708 C168.801875,25.323708 169.279653,24.8291509 169.279653,24.1796723 C169.279653,23.5301937 168.795903,23.0237195 168.171806,23.0237195 C167.547708,23.0237195 167.063958,23.54509 167.063958,24.1796723 Z M167.643264,23.4229403 L168.204653,23.4229403 C168.422639,23.4229403 168.760069,23.4855048 168.760069,23.854933 C168.760069,24.1349834 168.551042,24.2362782 168.359931,24.2601123 L168.849653,24.9095909 L168.530139,24.9095909 L168.064306,24.2750086 L167.917986,24.2750086 L167.917986,24.9095909 L167.643264,24.9095909 L167.643264,23.4229403 L167.643264,23.4229403 Z M167.917986,23.6583018 L167.917986,24.0575226 L168.192708,24.0575226 C168.339028,24.0575226 168.473403,24.0307093 168.473403,23.854933 C168.473403,23.6791566 168.339028,23.6583018 168.192708,23.6583018 L167.917986,23.6583018 Z"/><g transform="translate(122.971)"><g transform="translate(28.903)"><path fill="#1355E9" d="M20.1263889,7.33195829 C20.1263889,15.5725908 15.4889583,21.0901799 14.3452778,22.2997594 C13.2045833,23.5093388 10.938125,25.3773347 10.0631944,25.5650281 C9.18527778,25.3773347 6.92180556,23.5093388 5.78111111,22.2997594 C4.63743056,21.0901799 0,15.5725908 0,7.33195829 C0,4.23352813 0.579305556,1.71605363 1.56770833,0 C4.03125,1.30491578 6.48583333,1.96631145 10.0631944,1.96631145 C13.6405556,1.96631145 16.0951389,1.30491578 18.5586806,0 C19.5470833,1.71307437 20.1263889,4.23352813 20.1263889,7.33195829 Z"/><path fill="#FFF" d="M18.3197917,7.2574768 C18.3197917,5.66953134 18.0719444,3.36358428 17.5195139,2.5323708 L17.4269444,2.58599748 C15.9249306,3.38145984 13.1299306,4.0726481 10.0631944,4.0726481 C6.99645833,4.0726481 4.10590278,3.32783316 2.60388889,2.5323708 C2.05145833,3.36358428 1.80361111,5.66953134 1.80361111,7.2574768 C1.80361111,14.6907299 5.67958333,19.4635041 6.208125,20.1040449 C6.92180556,20.9739888 9.58243056,23.3603758 10.0631944,23.4735877 C10.5409722,23.3603758 13.2015972,20.9739888 13.9182639,20.1040449 C14.4438194,19.4605248 18.3197917,14.6907299 18.3197917,7.2574768 L18.3197917,7.2574768 Z M17.0596528,3.74492953 C17.5553472,4.49272373 17.656875,6.4203048 17.6150694,7.84737023 C17.4000694,15.2180589 14.0138194,18.831901 13.5360417,19.4128567 C12.8940278,20.196402 10.4961806,22.4338261 10.0631944,22.5470379 C9.62722222,22.4338261 7.229375,20.196402 6.584375,19.4128567 C6.10659722,18.831901 2.72333333,15.2180589 2.50833333,7.85034949 C2.46652778,6.4203048 2.56506944,4.49272373 3.06076389,3.74790879 C4.41645833,4.46293113 7.29506944,4.87108972 10.0602083,4.87108972 C12.8163889,4.87108972 15.7009722,4.46591039 17.0566667,3.74790879 L17.0596528,3.74492953 Z M9.47791667,19.7018448 L9.46298611,19.0017188 C9.14048611,19.1268477 8.88368056,19.6065085 8.88666667,19.9997708 C8.88666667,20.0742523 8.90756944,20.3811161 9.05388889,20.4585768 C9.10763889,20.4853902 9.14944444,20.4585768 9.17333333,20.4198465 C9.28083333,20.2589664 9.25694444,19.8895382 9.47791667,19.7018448 L9.47791667,19.7018448 Z M10.2363889,18.2986135 C10.1706944,18.2151942 10.0333333,18.0870861 9.81534722,18.0245216 C9.67798611,17.982812 9.67798611,17.994729 9.55854167,17.9500401 C9.58541667,18.6084565 9.61826389,19.4039189 9.62722222,19.8716627 C9.63916667,20.3304687 9.65409722,20.896528 9.65409722,21.0008021 C9.91986111,21.182537 10.2543056,21.0305947 10.2543056,21.0305947 C10.2602778,20.9561132 10.32,20.2381116 10.3349306,19.4605248 C10.3379167,19.141744 10.37375,18.4326802 10.2363889,18.2956342 L10.2363889,18.2986135 Z M10.6186111,17.1724533 C10.4961806,17.1218059 10.1826389,17.0026355 10.0333333,16.940071 C9.84222222,16.859631 9.50777778,16.6898132 9.37340278,16.6421451 C9.24798611,16.6004354 9.03895833,16.5706428 9.31069444,16.4276384 C9.30173611,16.228028 9.27784722,16.090982 9.26888889,15.9390398 C9.26888889,15.8168901 9.24798611,15.6709064 9.23604167,15.5249227 C8.13715278,15.5338604 7.69520833,17.2171422 9.486875,17.6640312 C9.74965278,17.7295749 9.83027778,17.7563882 9.93777778,17.8100149 C10.1348611,17.914289 10.2125,17.9768534 10.3050694,18.063252 C10.4185417,18.1705053 10.4872222,18.3135098 10.4872222,18.5041824 L10.4872222,19.3622092 C11.5174306,18.8259425 11.6189583,17.6074252 10.6186111,17.1724533 Z M10.3856944,15.8049731 C10.3856944,15.6649479 10.4036111,15.4772545 10.4125694,15.33425 C10.4155556,15.2657271 10.400625,15.0482411 10.4036111,14.9946144 C10.2244444,14.9469463 10.2214583,14.9946144 9.863125,14.9588633 C9.66902778,14.9380085 9.58243056,14.9141744 9.42118056,14.9052366 C9.41520833,15.0363241 9.42715278,15.402773 9.43611111,15.5159849 L9.46,15.9003094 L9.46,16.2012146 C9.46,16.2369657 9.46597222,16.4038043 9.46895833,16.4425347 C9.59736111,16.5110576 9.71083333,16.6212902 9.91986111,16.7047095 C10.0661806,16.7583362 10.2572917,16.8506933 10.3976389,16.8715481 C10.3976389,16.7404606 10.3916667,16.457431 10.3976389,16.320385 C10.400625,16.0611894 10.3827083,16.0701272 10.3886806,15.8049731 L10.3856944,15.8049731 Z M10.6425,13.6241549 C10.3677778,13.5645697 10.2214583,13.5317979 10.1408333,13.5228601 C9.66305556,13.4632749 9.51673611,13.4722127 9.11958333,13.4453993 L8.87173611,12.8733815 L8.59104167,12.1881517 C7.66534722,12.5456629 7.56083333,14.3689699 8.99416667,14.6430618 C9.61229167,14.7622322 9.79743056,14.7503151 9.98555556,14.7711699 C10.3438889,14.8099003 10.7350694,14.7711699 10.8395833,14.9260914 C11.0306944,15.2001833 10.7679167,15.2508308 10.6425,15.3938352 C10.6006944,15.4981093 10.6006944,15.5457775 10.5917361,15.6947405 C10.5678472,15.9330812 10.561875,16.171422 10.5588889,16.3948665 C12.1027083,16.239945 12.5595833,14.0323135 10.6425,13.6241549 L10.6425,13.6241549 Z M8.95833333,12.5546007 L9.271875,13.2606852 L10.3946528,13.3649593 L10.3946528,11.1990375 L9.11659722,11.1007219 L8.65972222,11.8306405 L8.95833333,12.5546007 L8.95833333,12.5546007 Z M10.7977778,9.82857798 C10.6932639,9.8047439 10.5947222,9.76601352 10.48125,9.73622092 C10.2214583,9.67067721 9.92881944,9.62002979 9.60930556,9.58427868 C9.29576389,9.5604446 9.00611111,9.47702532 8.77020833,9.42935717 C7.068125,9.08674229 7.29506944,8.35086513 7.39958333,8.00825026 C7.68625,8.11252435 7.95201389,8.17806806 8.23868056,8.21381918 C8.573125,8.25552882 8.93145833,8.26744586 9.245,8.12742065 C8.96430556,7.88610061 8.28347222,7.775868 8.07743056,7.58817463 C8.07743056,7.58817463 8.44770833,7.54050647 9.06881944,7.61200871 C9.379375,7.64775983 9.77055556,7.46900424 9.77055556,7.46900424 C9.540625,6.91784118 8.81201389,6.4054085 7.46229167,6.62885298 C5.60493056,6.93571674 5.04354167,10.3767618 8.86277778,10.8713189 C9.08673611,10.9011115 9.52270833,10.9309041 9.77652778,10.9577174 C10.1736806,10.9934685 10.3588194,10.9934685 10.5917361,11.0381574 C10.7529861,11.06795 11.1859722,11.6935946 10.5917361,11.756159 C10.5917361,11.756159 10.4931944,12.420534 10.6634028,13.1385356 C12.4490972,13.1653489 13.195625,10.4125129 10.7977778,9.83155724 L10.7977778,9.82857798 Z M11.7951389,6.9089034 C11.5980556,7.03999083 11.0008333,7.57625759 10.7679167,7.68946946 C10.6454861,7.75203392 10.6723611,6.58416409 10.6723611,6.58416409 C10.6813194,6.48882778 10.37375,6.28921737 10.0452778,6.15515068 C10.0064583,6.13429586 9.95270833,6.07173141 9.85715278,6.02704251 C9.34951389,5.86318322 9.07180556,5.75592987 9.08673611,6.24154922 C9.08972222,6.31900997 9.05388889,6.41732554 9.14347222,6.56628853 C9.14347222,6.56628853 9.63319444,6.80462931 9.84819444,7.21576716 C9.97659722,7.46006646 10.0124306,7.60902945 10.0124306,7.60902945 C10.0124306,7.60902945 9.90493056,7.69840724 9.59138889,7.74309614 C9.83027778,7.82055689 10.0333333,7.91887246 10.2244444,7.95462358 L10.4036111,8.14827547 C10.2632639,8.16317177 9.88701389,8.11252435 9.47493056,7.97845766 L9.53763889,8.16615103 C9.37340278,8.30021772 9.29875,8.33596883 9.01805556,8.36576143 C9.003125,8.68156297 9.02402778,9.0271571 9.07180556,9.31316604 L10.454375,9.54256904 C10.5648611,9.47702532 10.6872917,9.23272602 10.7022222,9.21782972 C10.9500694,8.95565486 11.4188889,8.46109774 12.4072917,7.50475536 C12.7805556,7.14128567 12.1922917,6.64077002 11.798125,6.90592414 L11.7951389,6.9089034 Z M8.58506944,7.04892861 C8.37604167,6.92082044 8.24465278,6.89698636 8.24465278,6.89698636 C8.24465278,6.89698636 8.66569444,6.75100264 9.03298611,6.94763378 C9.03298611,6.94763378 8.97625,7.12043085 8.85381944,7.13532715 C8.74034722,7.15022344 8.66569444,7.09659677 8.58805556,7.04892861 L8.58506944,7.04892861 Z"/></g><g transform="translate(0 .12)"><polygon fill="#1355E9" points="25.475 18.367 18.383 18.367 18.385 25.446 7.095 25.446 7.095 18.367 0 18.367 0 7.079 7.095 7.079 7.095 0 18.383 0 18.383 7.079 25.475 7.079"/><path fill="#FFF" d="M6.42611111,9.76601352 L11.1202778,9.76601352 C11.5861111,9.76899278 11.959375,9.63492609 12.1773611,9.40850235 C12.4550694,9.12547267 12.4759722,8.69943852 12.09375,8.23169474 C11.4159028,7.40346052 12.0011806,6.61097743 12.7148611,6.63779076 C13.4255556,6.66758336 14.0138194,7.40346052 13.3389583,8.23169474 C12.95375,8.69943852 12.9746528,9.12249341 13.2553472,9.40850235 C13.4703472,9.63194683 13.8465972,9.76899278 14.3124306,9.76899278 L19.1290278,9.76899278 C18.6213889,8.67262519 18.463125,8.38065773 17.5911806,7.62988427 C16.4355556,6.63183224 14.2825694,5.71124098 12.7715972,5.71124098 C10.8395833,5.71124098 9.09270833,6.4947863 7.82659722,7.75799244 C7.24729167,8.33596883 6.7725,9.01524006 6.423125,9.76601352 L6.42611111,9.76601352 Z M8.39694444,18.131775 C8.84486111,17.2916237 10.8007639,13.6539475 11.4129167,12.512891 C12.0907639,11.2437264 11.3502083,10.7134181 10.3498611,10.6538329 C9.41520833,10.6002063 7.89527778,10.3499484 6.19020833,10.3112181 C5.92444444,11.0500745 5.778125,11.8574539 5.778125,12.6886674 C5.778125,14.8873611 6.799375,16.8506933 8.39694444,18.131775 Z M16.6535417,18.4952446 C16.6535417,18.4952446 13.5091667,13.957832 13.3359722,13.6628853 C13.1568056,13.3709178 13.0075,13.189183 12.711875,13.189183 C12.41625,13.189183 12.2669444,13.3679386 12.0907639,13.6628853 C11.9354861,13.9220809 9.40326389,17.5925289 8.815,18.4445972 C9.94076389,19.2192048 11.3024306,19.6660937 12.7715972,19.6660937 C14.2407639,19.6660937 15.5456944,19.2341011 16.6535417,18.4952446 Z M19.7650694,12.6886674 C19.7650694,11.8485161 19.61875,11.044116 19.3470139,10.299301 C17.5971528,10.3290936 16.0324306,10.597227 15.0798611,10.6538329 C14.0735417,10.7134181 13.3359722,11.2467056 14.0108333,12.512891 C14.6946528,13.7790764 16.9670833,18.0245216 17.0566667,18.2032772 C18.705,16.9251747 19.7650694,14.93205 19.7650694,12.6916466 L19.7650694,12.6886674 Z"/><path fill="#1355E9" d="M11.3233333,8.85436003 L8.10131944,8.85436003 C8.81201389,7.90993469 9.84520833,7.20087086 10.938125,6.96550934 C10.5827778,8.20190214 11.3233333,8.29127994 11.3233333,8.85436003 Z M17.3284028,8.85436003 C16.5161806,8.04400138 15.5845139,7.20087086 14.4886111,6.96550934 C14.8439583,8.2048814 14.1034028,8.2942592 14.1034028,8.85436003 L17.3284028,8.85436003 Z M12.7148611,14.5179329 C12.5088194,14.5179329 10.2035417,18.1496505 10.2035417,18.1496505 C10.8813889,18.5012032 11.7413889,18.6799587 12.7148611,18.6799587 C13.6883333,18.6799587 14.5483333,18.5041824 15.2291667,18.1496505 C15.2291667,18.1496505 12.9209028,14.5179329 12.7148611,14.5179329 Z M15.1694444,11.5982583 C14.9066667,11.6280509 14.6677778,11.6548642 14.9066667,12.0987739 C15.1395833,12.5397044 17.2985417,16.6093732 17.2985417,16.6093732 C18.3615972,15.2836026 19.0424306,13.6301134 18.6303472,11.3301249 C18.6303472,11.3301249 15.3784722,11.595279 15.1694444,11.595279 L15.1694444,11.5982583 Z M10.2602778,11.5982583 C10.0542361,11.5982583 6.80236111,11.3331042 6.80236111,11.3331042 C6.38729167,13.6330927 7.068125,15.2865819 8.13118056,16.6123525 C8.13118056,16.6123525 10.2901389,12.5426836 10.5290278,12.1017532 C10.7619444,11.6578435 10.5290278,11.6280509 10.2602778,11.6012375 L10.2602778,11.5982583 Z"/></g></g><path fill="#1355E9" d="M15.6084028,20.7624613 L6.24993056,20.7624613 L4.37763889,25.5620488 L0,25.5620488 L8.58805556,4.19181849 L13.5002083,4.19181849 L22.1240972,25.5650281 L17.4777083,25.5650281 L15.6054167,20.7654406 L15.6084028,20.7624613 Z M14.2049306,17.0622207 L10.9291667,8.62793629 L7.65340278,17.0622207 L14.2019444,17.0622207 L14.2049306,17.0622207 Z M23.7873611,9.59321645 L27.8634028,9.59321645 L27.8634028,11.8604331 C28.6995139,10.1592758 30.3030556,9.15824453 32.4082639,9.15824453 C36.0841667,9.15824453 38.458125,11.7263664 38.458125,15.8943509 L38.458125,25.5650281 L34.3820833,25.5650281 L34.3820833,16.4961613 C34.3820833,14.3272602 33.1458333,12.95978 31.1391667,12.95978 C29.1325,12.95978 27.8634028,14.3272602 27.8634028,16.4961613 L27.8634028,25.5650281 L23.7873611,25.5650281 L23.7873611,9.59321645 L23.7873611,9.59321645 Z M39.963125,9.59321645 L42.7700694,9.59321645 L42.7700694,5.4580039 L46.9147917,5.4580039 L46.9147917,9.59321645 L51.1938889,9.59321645 L51.1938889,13.1921623 L46.9147917,13.1921623 L46.9147917,19.9938123 C46.9147917,21.49238 47.5179861,22.192506 48.7184028,22.192506 C49.4858333,22.192506 50.2234028,21.8588289 50.6235417,21.3940644 L52.4301389,24.4269508 C51.5611806,25.2939154 50.0561806,25.9940415 48.0853472,25.9940415 C44.8454167,25.9940415 42.7730556,23.9949582 42.7730556,20.0921279 L42.7730556,13.189183 L39.9661111,13.189183 L39.9661111,9.59023719 L39.963125,9.59321645 Z M54.4159028,2.62472786 L58.4919444,2.62472786 L58.4919444,11.8604331 C59.3280556,10.1592758 60.9315972,9.15824453 63.0368056,9.15824453 C66.7127083,9.15824453 69.0866667,11.7263664 69.0866667,15.8943509 L69.0866667,25.5650281 L65.010625,25.5650281 L65.010625,16.4961613 C65.010625,14.3272602 63.774375,12.95978 61.7677083,12.95978 C59.7610417,12.95978 58.4919444,14.3272602 58.4919444,16.4961613 L58.4919444,25.5650281 L54.4159028,25.5650281 L54.4159028,2.62472786 L54.4159028,2.62472786 Z M71.2963889,17.5627363 C71.2963889,12.9270081 74.739375,9.16122379 79.3499306,9.16122379 C83.9604861,9.16122379 87.4363194,12.661854 87.4363194,17.2648104 C87.4363194,17.7980979 87.4034722,18.4326802 87.3347917,18.6978343 L75.4709722,18.6978343 C75.9039583,20.8995073 77.5761806,22.4308468 80.0158333,22.4308468 C81.6522222,22.4308468 83.0228472,21.7307208 83.9604861,20.7654406 L86.0656944,23.5659448 C84.8294444,24.933425 82.5570139,26 79.8844444,26 C74.9036111,26 71.2963889,22.2312364 71.2963889,17.5657156 L71.2963889,17.5627363 Z M75.5754861,15.861579 L83.2288889,15.861579 C82.7272222,13.728429 81.2909028,12.593331 79.4186111,12.593331 C77.5463194,12.593331 76.0771528,13.9280394 75.5754861,15.861579 L75.5754861,15.861579 Z M89.7147222,25.5650281 L89.7147222,9.59321645 L93.7907639,9.59321645 L93.7907639,12.0272717 C94.626875,10.2933425 96.1975694,9.15824453 98.3027778,9.15824453 C100.742431,9.15824453 102.614722,10.3588862 103.549375,12.4920362 C104.385486,10.5912685 105.923333,9.15824453 108.461528,9.15824453 C112.170278,9.15824453 114.609931,11.6250716 114.609931,15.8943509 L114.609931,25.5650281 L110.498056,25.5650281 L110.498056,16.4961613 C110.498056,14.3272602 109.294653,12.95978 107.356667,12.95978 C105.418681,12.95978 104.182431,14.3272602 104.182431,16.4961613 L104.182431,25.5650281 L100.106389,25.5650281 L100.106389,16.4961613 C100.106389,14.3272602 98.9029861,12.95978 96.965,12.95978 C95.0270139,12.95978 93.7907639,14.3272602 93.7907639,16.4961613 L93.7907639,25.5650281 L89.7147222,25.5650281 L89.7147222,25.5650281 Z"/></g></svg>