<svg xmlns="http://www.w3.org/2000/svg" id="Layer_1" data-name="Layer 1" viewBox="0 0 651.52 173.28"><link xmlns="" type="text/css" rel="stylesheet" id="dark-mode-custom-link"/><link xmlns="" type="text/css" rel="stylesheet" id="dark-mode-general-link"/><style xmlns="" lang="en" type="text/css" id="dark-mode-custom-style"/><style xmlns="" lang="en" type="text/css" id="dark-mode-native-style"/><style xmlns="" lang="en" type="text/css" id="dark-mode-native-sheet"/><defs><style>.cls-1{fill:#a05eb5}.cls-2{fill:#d7a9e3}.cls-3{fill:#84329b}.cls-4{fill:#5f6165}</style></defs><title>CareSource Brand Logo-Vert-Tertiary-RGB</title><path class="cls-1" d="M311.74 218.91c-6.93 17.39-1.86 43.43 8.94 57.78 4.65-8.68 13.78-16.35 22.08-21.9 26.2-17.53 34.5-43.28 21.73-57.49-11.16-12.41-40.81-8.37-52.75 21.61z" transform="translate(-67.37 -190.72)"/><path class="cls-2" d="M260.47 215c-11.77 18 1.92 39.75 24.62 51.32 24.21 12.34 34.74 18.26 43.08 26.33 10.64-34.1.47-55-9.66-67.63-19.86-24.91-49.08-23.79-58.04-10.02z" transform="translate(-67.37 -190.72)"/><path class="cls-3" d="M318.51 225a60.37 60.37 0 0 0-6.43-6.87c-.11.27-.24.53-.35.81-6.93 17.39-1.86 43.43 8.94 57.78 2.77-5.16 7.13-10 11.95-14.19A62.31 62.31 0 0 0 318.51 225z" transform="translate(-67.37 -190.72)"/><path class="cls-4" d="M121.21 274.34a51 51 0 0 0-28.39 8.32 53.37 53.37 0 0 0-10.7 9.28 57 57 0 0 0-8 11.73 61.1 61.1 0 0 0-6.73 27.88 36.37 36.37 0 0 0 2.48 13.81A27.19 27.19 0 0 0 77 355.52a31.39 31.39 0 0 0 11.5 6.31 52 52 0 0 0 15.61 2.17 44.55 44.55 0 0 0 12.16-1.51 30.44 30.44 0 0 0 8.81-3.95 17.87 17.87 0 0 0 5.31-5.39 11.33 11.33 0 0 0 1.77-5.83 4.08 4.08 0 0 0-.6-2.18 6.56 6.56 0 0 0-.75-1 34.9 34.9 0 0 1-3.23 3.58 25.69 25.69 0 0 1-4.88 3.67 26.31 26.31 0 0 1-6.3 2.63 29.31 29.31 0 0 1-7.89 1c-7.23 0-12.77-2-16.46-6s-5.54-9.58-5.54-16.75a73.64 73.64 0 0 1 .94-11.46 81 81 0 0 1 2.74-11.6 68.14 68.14 0 0 1 4.44-10.8 44.15 44.15 0 0 1 6.12-9 28.6 28.6 0 0 1 7.71-6.2 19.41 19.41 0 0 1 9.33-2.31 8.68 8.68 0 0 1 5.93 2 12.7 12.7 0 0 1 3.34 4.77 22.75 22.75 0 0 1 1.52 6c.21 1.84.33 3.56.36 5.12a30.38 30.38 0 0 0 6.11-.7 17.51 17.51 0 0 0 5.31-2.06 10.56 10.56 0 0 0 3.43-3.25 8 8 0 0 0 1.21-4.39 11.8 11.8 0 0 0-1.42-5.73 12.08 12.08 0 0 0-4.31-4.39 24.46 24.46 0 0 0-7.44-2.87 48.14 48.14 0 0 0-10.62-1.06zM188.23 364a12.57 12.57 0 0 1-7.78-2.22 7.6 7.6 0 0 1-2.93-6.47c0-1.13.05-2.25.16-3.33s.3-2.34.59-3.76h-.75a76.84 76.84 0 0 1-4 6.74 22.83 22.83 0 0 1-4.45 5 17.78 17.78 0 0 1-5.46 3 21.57 21.57 0 0 1-7 1 14.58 14.58 0 0 1-6.82-1.52 13.76 13.76 0 0 1-4.88-4.18 19 19 0 0 1-2.93-6.31 30.21 30.21 0 0 1-1-7.92 43 43 0 0 1 1-8.93 47.55 47.55 0 0 1 3-9.19 48.39 48.39 0 0 1 4.87-8.63 36 36 0 0 1 6.72-7.19 31.73 31.73 0 0 1 8.5-4.93 28.81 28.81 0 0 1 14.57-1.49 42 42 0 0 1 4.24.88q2 .54 3.81 1.2a21.33 21.33 0 0 1 3 1.36l5.76-2.61h5.81L195 338.58q-.21.9-.54 2.4t-.61 3.17c-.19 1.12-.36 2.2-.51 3.26a20 20 0 0 0-.21 2.63 6.43 6.43 0 0 0 1.07 4.05 3.39 3.39 0 0 0 2.77 1.33 6.87 6.87 0 0 0 3-.66q1.41-.67 3.12-1.63l2.4 4.38q-1.39 1.06-3.15 2.2a27.57 27.57 0 0 1-8.61 3.68 23 23 0 0 1-5.5.61zm-30.7-19.83a25.78 25.78 0 0 0 .45 5.28 11.5 11.5 0 0 0 1.22 3.44 4.7 4.7 0 0 0 1.87 1.87 5.15 5.15 0 0 0 2.37.56 8 8 0 0 0 5-2.08 24.2 24.2 0 0 0 4.8-5.46 46.38 46.38 0 0 0 4-7.65 47.05 47.05 0 0 0 2.69-8.63l3.84-18.12a6.32 6.32 0 0 0-3-2.29 10.93 10.93 0 0 0-4-.74 10.79 10.79 0 0 0-5.84 1.65 18.35 18.35 0 0 0-4.77 4.43 33 33 0 0 0-3.76 6.29 51.26 51.26 0 0 0-2.72 7.3 55.3 55.3 0 0 0-1.63 7.46 47.18 47.18 0 0 0-.51 6.69zM220 314a3.22 3.22 0 0 0-1.33-2.9 8.34 8.34 0 0 0-4.42-.88h-2l1-5.81h24.14l-2.29 15h.54a64.19 64.19 0 0 1 3.76-6.93 23.62 23.62 0 0 1 4.16-5 15.63 15.63 0 0 1 5.14-3.06 19.74 19.74 0 0 1 6.71-1q5.81 0 8.63 2.18a7.54 7.54 0 0 1 2.82 6.34q0 5.65-3.3 8.42t-9.56 2.71a37.65 37.65 0 0 0-.24-4.45 12.12 12.12 0 0 0-.85-3.41 5 5 0 0 0-1.65-2.16 4.32 4.32 0 0 0-2.58-.75 5.58 5.58 0 0 0-3.25 1.25A17.73 17.73 0 0 0 242 317a36.86 36.86 0 0 0-3.33 5.2q-1.63 3-3.12 6.56t-2.72 7.43q-1.22 3.9-2.08 7.89l-4.16 18.87h-16.46l9.28-43.86c.1-.6.24-1.41.4-2.4A17.23 17.23 0 0 0 220 314zM294.32 355.74a16.43 16.43 0 0 0 5.06-.77 20.87 20.87 0 0 0 4.45-2 21.09 21.09 0 0 0 3.68-2.82 23.33 23.33 0 0 0 2.8-3.23 6 6 0 0 1 1 2.05 9.15 9.15 0 0 1 .38 2.64 8.27 8.27 0 0 1-1.28 4.16 13.11 13.11 0 0 1-3.92 4 23.1 23.1 0 0 1-6.72 3 34.46 34.46 0 0 1-9.67 1.2 31.24 31.24 0 0 1-9.43-1.39 22.18 22.18 0 0 1-7.76-4.18 19.57 19.57 0 0 1-5.25-7 23.91 23.91 0 0 1-1.92-9.94 36.23 36.23 0 0 1 1.06-8.47 41.41 41.41 0 0 1 3.17-8.66 42.78 42.78 0 0 1 5.22-8 36 36 0 0 1 7.22-6.69 34.79 34.79 0 0 1 20.31-6.23q7.83 0 12.15 3.38a11.33 11.33 0 0 1 4.32 9.46 16.1 16.1 0 0 1-2.45 8.47 23.94 23.94 0 0 1-6.77 7.12 35.44 35.44 0 0 1-10.29 4.87 44.53 44.53 0 0 1-13 1.81h-2a19.77 19.77 0 0 1-2.08-.11 17.47 17.47 0 0 0-.19 2.16v2q0 6.34 3 9.77t8.91 3.4zm3.84-45.84a7.8 7.8 0 0 0-5.06 2 20.28 20.28 0 0 0-4.32 5.2 38.74 38.74 0 0 0-3.3 7.17 47.07 47.07 0 0 0-2 7.86h1a25.66 25.66 0 0 0 7.55-1.07A18.8 18.8 0 0 0 298 328a14.68 14.68 0 0 0 4-4.77 13.11 13.11 0 0 0 1.47-6.24 8.52 8.52 0 0 0-1.41-5.22 4.7 4.7 0 0 0-3.9-1.87zM344.94 335.63a25.93 25.93 0 0 0-5.67.7 15 15 0 0 0-4.87 2.08 9.57 9.57 0 0 0-3.11 3.4 9.86 9.86 0 0 0-1.1 4.76 13.46 13.46 0 0 0 1.82 6.84 16.17 16.17 0 0 0 5.49 5.49 31.43 31.43 0 0 0 9.37 3.73 57.15 57.15 0 0 0 13.28 1.37 49.84 49.84 0 0 0 13.92-1.82 31 31 0 0 0 10.52-5.24 23 23 0 0 0 6.65-8.42 27 27 0 0 0 2.33-11.46 22.74 22.74 0 0 0-4.35-13.69c-2.92-4-7.51-7.71-13.64-11a183.76 183.76 0 0 1-7.29-4.1 29.62 29.62 0 0 1-5.27-3.91 13.1 13.1 0 0 1-4.34-10.36 13.1 13.1 0 0 1 1.28-6 12.78 12.78 0 0 1 3.33-4.18 14 14 0 0 1 4.61-2.48 16.88 16.88 0 0 1 5.15-.82 11 11 0 0 1 6.38 1.75 12.89 12.89 0 0 1 4 4.38 18.55 18.55 0 0 1 2 5.75 33.81 33.81 0 0 1 .55 5.25c5.25-.07 9.08-1 11.4-2.73a8.64 8.64 0 0 0 3.55-7.36 9.07 9.07 0 0 0-1.58-5.08 13.69 13.69 0 0 0-4.89-4.2 30.86 30.86 0 0 0-8.38-2.9 58.2 58.2 0 0 0-11.91-1.08 44.36 44.36 0 0 0-13.17 1.85 29.74 29.74 0 0 0-9.89 5.09 22.39 22.39 0 0 0-6.23 7.79 22.75 22.75 0 0 0-2.17 9.94 28.55 28.55 0 0 0 1.21 8.61 23.33 23.33 0 0 0 3.59 7 31.26 31.26 0 0 0 6 6 65.79 65.79 0 0 0 8.42 5.42 77.35 77.35 0 0 1 7.7 4.71 25.19 25.19 0 0 1 4.79 4.3 12.71 12.71 0 0 1 2.46 4.48 17.94 17.94 0 0 1 .66 5 13.25 13.25 0 0 1-1.06 5.26 12.28 12.28 0 0 1-3.08 4.3 14.74 14.74 0 0 1-4.85 2.86 18.73 18.73 0 0 1-6.47 1 17.07 17.07 0 0 1-6.93-1.39 14.33 14.33 0 0 1-5.47-4.29 20.85 20.85 0 0 1-3.51-7.17 35.72 35.72 0 0 1-1.23-9.43zM403.37 341.08a39.66 39.66 0 0 1 1-8.48 41.65 41.65 0 0 1 2.9-8.58 41 41 0 0 1 4.88-8 32.86 32.86 0 0 1 6.9-6.58 33.31 33.31 0 0 1 9-4.48 35.77 35.77 0 0 1 11.17-1.65 29.43 29.43 0 0 1 8.85 1.3 18.81 18.81 0 0 1 12.15 11.19 27 27 0 0 1 1.78 10.47 40.26 40.26 0 0 1-.91 8.27 41.21 41.21 0 0 1-7.6 16.46 32.73 32.73 0 0 1-15.8 11.27A34.56 34.56 0 0 1 426.5 364a29.66 29.66 0 0 1-9.38-1.41 18.79 18.79 0 0 1-12-11.43 27.33 27.33 0 0 1-1.75-10.08zm25.1 15.08a8.89 8.89 0 0 0 5.3-1.68 17.47 17.47 0 0 0 4.27-4.42 31 31 0 0 0 3.27-6.26 52.88 52.88 0 0 0 2.27-7.25 69.47 69.47 0 0 0 1.33-7.33 52 52 0 0 0 .46-6.47q0-6.45-2.21-9.27a7.27 7.27 0 0 0-6-2.82 8.86 8.86 0 0 0-5.12 1.6 17 17 0 0 0-4.24 4.26 31.62 31.62 0 0 0-3.33 6.1 55 55 0 0 0-2.42 7.12 56.18 56.18 0 0 0-1.47 7.33 51.59 51.59 0 0 0-.48 6.69q0 6.66 2.24 9.54a7.4 7.4 0 0 0 6.13 2.86zM504.42 353.55c0-.32 0-.69.05-1.12s.08-.87.13-1.33.11-.9.16-1.31a9.6 9.6 0 0 1 .19-1H504q-2.4 3.41-4.72 6.18a30.66 30.66 0 0 1-4.93 4.77 20.75 20.75 0 0 1-5.65 3.09 20.38 20.38 0 0 1-6.93 1.09 15.68 15.68 0 0 1-5.92-1 9.64 9.64 0 0 1-5.92-6.5 16.53 16.53 0 0 1-.64-4.61 31.1 31.1 0 0 1 .64-6q.64-3.25 1.23-6l3.94-19.24c.28-1.49.51-2.84.69-4a20.78 20.78 0 0 0 .27-2.72c0-1.46-.45-2.42-1.33-2.88a10.29 10.29 0 0 0-4.42-.69h-2l1-5.81h26.22l-7.2 32.67c-.22.86-.43 1.81-.64 2.88s-.41 2.13-.58 3.2-.33 2.08-.45 3a19.93 19.93 0 0 0-.19 2.45 6.42 6.42 0 0 0 1 3.81q1 1.41 3.68 1.41a7.67 7.67 0 0 0 4.93-2.16 27.43 27.43 0 0 0 4.85-5.59 46.19 46.19 0 0 0 4.13-7.68 50.35 50.35 0 0 0 2.77-8.34l5.81-25.69h16.25l-7.41 35.5q-.69 3-1.12 5.57a29.81 29.81 0 0 0-.43 4.88 5.9 5.9 0 0 0 1 3.68 3.38 3.38 0 0 0 2.85 1.28 7.41 7.41 0 0 0 3.12-.64 24.32 24.32 0 0 0 3.28-1.86l2.67 3.68a36 36 0 0 1-3 2.75 21.06 21.06 0 0 1-3.71 2.42 21.52 21.52 0 0 1-4.55 1.71 22.18 22.18 0 0 1-5.49.64 18.94 18.94 0 0 1-6-.83 10.53 10.53 0 0 1-3.92-2.24 8.07 8.07 0 0 1-2.13-3.31 12.64 12.64 0 0 1-.63-4.11zM547.5 314a3.21 3.21 0 0 0-1.33-2.9 8.34 8.34 0 0 0-4.42-.88h-2l1-5.81h24.14l-2.29 15h.53a65.26 65.26 0 0 1 3.76-6.93 23.73 23.73 0 0 1 4.16-5 15.67 15.67 0 0 1 5.14-3.06 19.76 19.76 0 0 1 6.72-1q5.81 0 8.63 2.18a7.54 7.54 0 0 1 2.83 6.34q0 5.65-3.3 8.42t-9.59 2.77a37.72 37.72 0 0 0-.24-4.45 12.22 12.22 0 0 0-.85-3.41 5.06 5.06 0 0 0-1.69-2.27 4.32 4.32 0 0 0-2.58-.75 5.58 5.58 0 0 0-3.25 1.25 17.7 17.7 0 0 0-3.41 3.44 37.27 37.27 0 0 0-3.33 5.2q-1.62 3-3.12 6.56t-2.72 7.43q-1.22 3.9-2.08 7.89l-4.16 18.87h-16.46l9.27-43.86c.1-.6.24-1.41.4-2.4a16.92 16.92 0 0 0 .24-2.63zM622.06 355.74a16.41 16.41 0 0 0 5.2-.77 16.92 16.92 0 0 0 4.18-2 18.36 18.36 0 0 0 3.3-2.88 29.81 29.81 0 0 0 2.56-3.25 5 5 0 0 1 1.17 1.89 8.11 8.11 0 0 1 .48 2.91 8.81 8.81 0 0 1-1.25 4.35 12.15 12.15 0 0 1-3.89 4 23 23 0 0 1-6.68 2.93 35.84 35.84 0 0 1-9.65 1.15 30.86 30.86 0 0 1-9.36-1.39 21.51 21.51 0 0 1-7.67-4.21 20.13 20.13 0 0 1-5.2-7 23.62 23.62 0 0 1-1.92-9.91 37.57 37.57 0 0 1 1-8.45 41.5 41.5 0 0 1 3-8.63 42.35 42.35 0 0 1 5-8.05 34.94 34.94 0 0 1 7-6.69 34.34 34.34 0 0 1 9-4.58 33.3 33.3 0 0 1 10.87-1.7 28.77 28.77 0 0 1 7.81.93 16.54 16.54 0 0 1 5.38 2.5 10 10 0 0 1 3.12 3.68 10.18 10.18 0 0 1 1 4.45 8.18 8.18 0 0 1-.72 3.33 7.94 7.94 0 0 1-2.32 2.93 12.43 12.43 0 0 1-4.13 2.11 20.63 20.63 0 0 1-6.16.8 28.33 28.33 0 0 0-.51-5.46 16.8 16.8 0 0 0-1.52-4.53 8.93 8.93 0 0 0-2.48-3.06 5.48 5.48 0 0 0-3.44-1.12 7.1 7.1 0 0 0-4.4 1.57 16.86 16.86 0 0 0-3.75 4.16 31.46 31.46 0 0 0-3 5.91 61.63 61.63 0 0 0-2.24 6.88 59.24 59.24 0 0 0-1.41 7 45 45 0 0 0-.48 6.26q0 6.66 3 10.36t9.11 3.58zM676.48 355.74a16.44 16.44 0 0 0 5.06-.77 20.77 20.77 0 0 0 4.45-2 21.19 21.19 0 0 0 3.67-2.82 23.21 23.21 0 0 0 2.8-3.23 6 6 0 0 1 1 2.05 9.25 9.25 0 0 1 .38 2.64 8.26 8.26 0 0 1-1.28 4.16 13 13 0 0 1-3.92 4 23.08 23.08 0 0 1-6.71 3 34.45 34.45 0 0 1-9.67 1.2 31.25 31.25 0 0 1-9.43-1.39 22.22 22.22 0 0 1-7.76-4.18 19.59 19.59 0 0 1-5.25-7 24 24 0 0 1-1.92-9.94A36.35 36.35 0 0 1 649 333a40.94 40.94 0 0 1 3.18-8.66 42.6 42.6 0 0 1 5.22-8 35.93 35.93 0 0 1 7.22-6.69 34.79 34.79 0 0 1 20.3-6.23q7.84 0 12.16 3.38a11.34 11.34 0 0 1 4.32 9.46 16.17 16.17 0 0 1-2.45 8.47 24 24 0 0 1-6.77 7.12 35.37 35.37 0 0 1-10.28 4.87 44.55 44.55 0 0 1-13 1.81h-2a19.81 19.81 0 0 1-2.08-.11 17.56 17.56 0 0 0-.18 2.16v2q0 6.34 3 9.77t8.84 3.39zm3.84-45.84a7.82 7.82 0 0 0-5.07 2 20.23 20.23 0 0 0-4.31 5.2 38.43 38.43 0 0 0-3.3 7.17 47.45 47.45 0 0 0-2 7.86h1a25.62 25.62 0 0 0 7.54-1.07 18.81 18.81 0 0 0 6.08-3.06 14.7 14.7 0 0 0 4.05-4.77 13.19 13.19 0 0 0 1.39-6.23 8.5 8.5 0 0 0-1.41-5.22 4.69 4.69 0 0 0-3.97-1.88zM706.24 307.31a6.5 6.5 0 0 1 1.43-2.07 6.64 6.64 0 0 1 2.1-1.37 6.58 6.58 0 0 1 8.59 3.44 6.31 6.31 0 0 1 .53 2.57 6.45 6.45 0 0 1-.53 2.62 6.65 6.65 0 0 1-1.42 2.08 6.38 6.38 0 0 1-2.08 1.38 6.85 6.85 0 0 1-5.09 0 6.44 6.44 0 0 1-2.1-1.38 6.57 6.57 0 0 1-1.43-2.08 6.47 6.47 0 0 1-.52-2.62 6.32 6.32 0 0 1 .52-2.57zm1.08 4.81a5.45 5.45 0 0 0 1.14 1.78 5.27 5.27 0 0 0 1.72 1.18 5.33 5.33 0 0 0 2.15.43 5.22 5.22 0 0 0 2.12-.43 5.3 5.3 0 0 0 1.71-1.18 5.45 5.45 0 0 0 1.14-1.78 5.93 5.93 0 0 0 .41-2.23 5.77 5.77 0 0 0-.41-2.19 5.31 5.31 0 0 0-2.84-2.93 5.22 5.22 0 0 0-2.12-.43 5.31 5.31 0 0 0-5 3.36 5.77 5.77 0 0 0-.41 2.19 5.93 5.93 0 0 0 .39 2.23zm5.4-6a3.14 3.14 0 0 1 2 .54 2 2 0 0 1 .66 1.65 1.86 1.86 0 0 1-.58 1.51 2.6 2.6 0 0 1-1.44.57l2.19 3.38h-1.25l-2.08-3.29H711v3.29h-1.19v-7.65h3zm-.53 3.4h.76a1.94 1.94 0 0 0 .64-.15 1 1 0 0 0 .45-.38 1.3 1.3 0 0 0 .17-.71 1.1 1.1 0 0 0-.15-.61 1 1 0 0 0-.38-.35 1.68 1.68 0 0 0-.54-.17 4.27 4.27 0 0 0-.6 0H711v2.43h1.24z" transform="translate(-67.37 -190.72)"/></svg>