<?xml version="1.0" encoding="utf-8"?>
<!-- Generator: Adobe Illustrator 24.0.0, SVG Export Plug-In . SVG Version: 6.00 Build 0)  -->
<svg version="1.1" id="Layer_1" xmlns="http://www.w3.org/2000/svg" xmlns:xlink="http://www.w3.org/1999/xlink" x="0px" y="0px"
	 viewBox="0 0 841.9 595.3" style="enable-background:new 0 0 841.9 595.3;" xml:space="preserve">
<style type="text/css">
	.st0{fill:#0982C6;}
	.st1{fill:#F8971F;}
	.st2{fill:#56B948;}
</style>
<g>
	<path class="st0" d="M230.2,279.9c0,1.9-2,4-4.6,7.2c-8.9,10.9-28.6,30.3-28.6,78.4c0,24.9,4.1,35.2,4.1,46.9
		c0,5.3-1.1,8.1-3.8,8.1c-6.3,0-16.9-26.3-16.9-57.7c0-65.9,41.6-84.3,48-84.3C229.7,278.4,230.2,279.1,230.2,279.9 M125.5,278.4
		c6.4,0,48,18.4,48,84.3c0,31.5-10.6,57.7-16.9,57.7c-2.8,0-3.8-2.8-3.8-8.1c0-11.7,4.1-22,4.1-46.9c0-48.1-19.8-67.5-28.6-78.4
		c-2.6-3.2-4.6-5.3-4.6-7.2C123.6,279.1,124.2,278.4,125.5,278.4z"/>
	<path class="st1" d="M161.8,291.6c0,8.6,6.8,15.6,15.2,15.6c8.4,0,15.2-7,15.2-15.6c0-8.6-6.8-15.6-15.2-15.6
		C168.5,276,161.8,283,161.8,291.6"/>
	<path class="st2" d="M306.7,389.5c-21.6-13.3-54.5-27.1-102.1-31.5c-0.1,0.6-0.5,4.1-0.5,7.5c0,1.6,0.3,3.7,0.3,4.1
		c46.5,3,79.6,12.9,102,20.9c0.4,0.2,0.9,0.4,1.1,0.4c0.2,0,0.4-0.2,0.4-0.4C308,390.2,307.6,390,306.7,389.5 M201.6,211.8
		c-3.6-3.3-6.7-8.3-4.3-15.9c2.3-7.3,7.9-13.2,13.8-14.9c4,4.7,5.3,12.8,3,20.1C211.8,208.8,206.5,211.2,201.6,211.8z M236.7,241
		c-1.3-4.5-1.2-10.1,4.7-15.1c5.6-4.7,13.2-6.7,18.9-4.9c0.8,5.9-2.3,13.1-7.9,17.8C246.5,243.8,240.9,243,236.7,241z M237.8,285
		c1.5-4.4,4.6-8.9,12.1-9.7c7.1-0.8,14.4,1.9,18,6.4c-2.6,5.2-9.1,9.3-16.2,10.1C244.2,292.7,240.2,289,237.8,285z M225.1,301
		c2.4-3.3,6.3-6.3,12.8-5c6.3,1.2,11.7,5.4,13.6,10.2c-3.6,3.8-10.2,5.6-16.5,4.3C228.5,309.2,226.1,305,225.1,301z M186.9,259.3
		c-4.4-3.9-8-9.9-5.2-19.1c2.7-8.8,9.4-15.9,16.6-17.8c4.8,5.6,6.4,15.3,3.6,24.1C199.1,255.7,192.7,258.6,186.9,259.3z M203.6,269
		c-1.4-5.1-1.3-11.4,5.3-17c6.3-5.3,14.9-7.5,21.2-5.5c0.9,6.6-2.6,14.7-8.9,20C214.6,272.2,208.4,271.3,203.6,269z M214.7,233.4
		c-3.2-5.1-5.1-11.9,0.2-20.2c5.1-7.8,13.7-13,21.2-12.9c3.2,6.9,2,16.8-3.1,24.6C227.7,233.3,220.7,234.3,214.7,233.4z
		 M237.2,264.4c0.1-5.6,2-11.9,10.3-15.7c7.9-3.6,17.3-3.3,23.1,0.6c-1,7-6.9,14.2-14.8,17.8C247.5,270.8,241.4,268,237.2,264.4z
		 M164.7,200.2c0-10.6,5-20.8,12.3-25.4c7.3,4.6,12.2,14.8,12.2,25.4c0,11.1-6.1,16.4-12.2,19.3
		C170.8,216.6,164.7,211.3,164.7,200.2z M45.9,390.5c0,0.2,0.1,0.4,0.4,0.4c0.2,0,0.6-0.2,1.1-0.4c22.4-8,55.6-17.9,102-20.9
		c0.1-0.4,0.3-2.5,0.3-4.1c0-3.4-0.4-6.9-0.5-7.5c-47.6,4.4-80.5,18.2-102.1,31.5C46.3,390,45.9,390.2,45.9,390.5z M139.7,201.1
		c-2.3-7.3-1-15.4,3-20.1c6,1.6,11.6,7.6,13.8,14.9c2.4,7.6-0.7,12.6-4.3,15.9C147.4,211.2,142.1,208.8,139.7,201.1z M101.5,238.8
		c-5.6-4.8-8.7-11.9-7.9-17.8c5.7-1.8,13.3,0.1,18.9,4.9c5.9,5,6,10.6,4.7,15.1C112.9,243,107.4,243.8,101.5,238.8z M102.2,291.9
		C95,291.1,88.5,287,86,281.8c3.6-4.6,10.9-7.2,18-6.4c7.5,0.8,10.6,5.3,12.1,9.7C113.7,289,109.7,292.7,102.2,291.9z M118.8,310.5
		c-6.3,1.2-12.9-0.6-16.4-4.3c1.9-4.8,7.3-9,13.6-10.2c6.6-1.3,10.4,1.7,12.8,5C127.8,305,125.4,309.2,118.8,310.5z M151.9,246.5
		c-2.7-8.8-1.2-18.5,3.6-24.1c7.2,1.9,13.9,9.1,16.6,17.8c2.8,9.2-0.8,15.1-5.2,19.1C161.1,258.6,154.8,255.7,151.9,246.5z
		 M132.7,266.6c-6.3-5.3-9.8-13.4-8.9-20c6.4-2,14.9,0.2,21.2,5.5c6.6,5.6,6.7,11.9,5.3,17C145.5,271.3,139.3,272.2,132.7,266.6z
		 M120.8,225.1c-5.1-7.8-6.3-17.8-3.1-24.6c7.6-0.1,16.2,5,21.2,12.9c5.3,8.2,3.4,15.1,0.2,20.2
		C133.2,234.3,126.2,233.3,120.8,225.1z M98.1,267c-7.9-3.6-13.9-10.8-14.8-17.8c5.9-3.9,15.2-4.2,23.1-0.6
		c8.3,3.8,10.2,10.1,10.3,15.7C112.5,268,106.4,270.8,98.1,267z"/>
	<path class="st0" d="M576.4,358.1v-61c0-8.2-0.8-23.8-1-27.4h18.9l0.9,12.4h0.4c2.2-3.5,9.3-14.4,25.8-14.4c19.9,0,31,14.6,31,32.9
		v57.4h-21.1v-53.2c0-11.2-6.3-19.7-17-19.7c-11.1,0-17,8.9-17,19.7v53.2H576.4 M453.2,270h-21.1v88.1h21.1V270z M753.8,358.1
		c-0.7-4.9-2.7-17.9-2.7-29.1v-57.3c-3.3-0.8-15.3-4-29-4c-35.7,0-51.1,23.9-51.1,49.8c0,23.8,12,42.5,34.9,42.5
		c16.8,0,24.3-10.9,27.1-16.6h0.5c0.2,2.7,1,12.1,1.2,14.7H753.8z M730.1,314.4c0,20.2-7.9,28.6-19.3,28.6c-11.5,0-18-9.8-18-26.9
		c0-17.5,10.1-32,28.6-32c3.8,0,6.5,0.4,8.8,0.9V314.4z M411.1,336.5c-5.7,2.7-14.9,4.5-23.8,4.5c-24.2,0-42.1-17.3-42.1-43.7
		c0-26.2,17.7-43.7,42.1-43.7c12.1,0,20.7,2.9,23.8,4.4v-18.9c-5.3-2-13.9-4-26-4c-37.6,0-62.9,26-62.9,62.1
		c0,34.2,23.3,62.1,62.9,62.1c11.6,0,20.3-1.8,26-3.9V336.5z M532.6,347.5v6.6c0,18-11.1,25-24.9,25c-12.4,0-21.5-3.7-24.4-4.7v17.8
		c2.4,0.6,12.4,3.8,26.7,3.8c25.5,0,42.5-10.5,42.5-46.5v-77.7c-3.3-0.8-15.2-4-29-4c-35.7,0-51.1,23.9-51.1,49.8
		c0,23.8,12,42.5,34.9,42.5c15.1,0,22.4-9.1,24.8-12.5H532.6z M531.5,314.4c0,20.2-7.9,28.6-19.4,28.6c-11.5,0-18-9.8-18-26.9
		c0-17.5,10-32,28.6-32c3.8,0,6.5,0.4,8.8,0.9V314.4z M429.6,246.9c0,7.1,5.8,12.8,13.1,12.8c7.2,0,13-5.7,13-12.8
		c0-7.1-5.8-12.8-13-12.8C435.5,234.1,429.6,239.9,429.6,246.9z"/>
	<path class="st0" d="M792.6,355.5c-2.3,2.3-5.1,3.5-8.3,3.5c-3.3,0-6-1.2-8.3-3.5c-2.3-2.3-3.4-5.1-3.4-8.3c0-3.2,1.1-6,3.4-8.3
		c2.3-2.3,5-3.4,8.3-3.4c3.2,0,6,1.1,8.3,3.4c2.3,2.3,3.4,5,3.4,8.3C796,350.4,794.9,353.2,792.6,355.5 M777.1,340
		c-2,2-2.9,4.3-2.9,7.1c0,2.8,1,5.2,2.9,7.2c2,2,4.3,3,7.1,3c2.8,0,5.2-1,7.1-3c2-2,2.9-4.4,2.9-7.2c0-2.8-1-5.2-2.9-7.1
		c-2-2-4.4-3-7.1-3C781.5,337.1,779.1,338.1,777.1,340z M784,340.7c1.6,0,2.8,0.2,3.5,0.5c1.3,0.5,2,1.6,2,3.3c0,1.2-0.4,2-1.3,2.5
		c-0.4,0.3-1.1,0.5-1.9,0.6c1,0.2,1.7,0.6,2.2,1.3c0.5,0.7,0.7,1.3,0.7,2v0.9c0,0.3,0,0.6,0,1c0,0.3,0.1,0.6,0.1,0.7l0.1,0.2h-2.1
		c0,0,0-0.1,0-0.1c0,0,0-0.1,0-0.1l0-0.4v-1c0-1.5-0.4-2.5-1.2-2.9c-0.5-0.3-1.3-0.4-2.5-0.4h-1.8v5.1h-2.3v-12.9H784z M786.5,342.7
		c-0.6-0.3-1.5-0.5-2.8-0.5h-1.9v4.7h2.1c1,0,1.7-0.1,2.2-0.3c0.9-0.4,1.3-1,1.3-2C787.3,343.7,787.1,343,786.5,342.7z"/>
</g>
</svg>
