<?xml version="1.0" encoding="UTF-8" standalone="no"?>
<!-- Created with Inkscape (http://www.inkscape.org/) -->

<svg
   xmlns:dc="http://purl.org/dc/elements/1.1/"
   xmlns:cc="http://creativecommons.org/ns#"
   xmlns:rdf="http://www.w3.org/1999/02/22-rdf-syntax-ns#"
   xmlns:svg="http://www.w3.org/2000/svg"
   xmlns="http://www.w3.org/2000/svg"
   xmlns:sodipodi="http://sodipodi.sourceforge.net/DTD/sodipodi-0.dtd"
   xmlns:inkscape="http://www.inkscape.org/namespaces/inkscape"
   version="1.1"
   id="svg575"
   xml:space="preserve"
   width="1000"
   height="366.05292"
   viewBox="0 0 1000 366.05292"
   sodipodi:docname="A.svg"
   inkscape:version="0.92.4 (5da689c313, 2019-01-14)"><metadata
     id="metadata581"><rdf:RDF><cc:Work
         rdf:about=""><dc:format>image/svg+xml</dc:format><dc:type
           rdf:resource="http://purl.org/dc/dcmitype/StillImage" /><dc:title></dc:title></cc:Work></rdf:RDF></metadata><defs
     id="defs579"><clipPath
       clipPathUnits="userSpaceOnUse"
       id="clipPath595"><path
         d="M 0,211.098 H 612 V 412.801 H 0 Z"
         id="path593"
         inkscape:connector-curvature="0" /></clipPath><clipPath
       clipPathUnits="userSpaceOnUse"
       id="clipPath607"><path
         d="M 0,0 H 612 V 792 H 0 Z"
         id="path605"
         inkscape:connector-curvature="0" /></clipPath></defs><sodipodi:namedview
     pagecolor="#ffffff"
     bordercolor="#666666"
     borderopacity="1"
     objecttolerance="10"
     gridtolerance="10"
     guidetolerance="10"
     inkscape:pageopacity="0"
     inkscape:pageshadow="2"
     inkscape:window-width="1920"
     inkscape:window-height="1017"
     id="namedview577"
     showgrid="false"
     fit-margin-top="0"
     fit-margin-left="0"
     fit-margin-right="0"
     fit-margin-bottom="0"
     inkscape:zoom="0.4469697"
     inkscape:cx="918.62197"
     inkscape:cy="174.92761"
     inkscape:window-x="1912"
     inkscape:window-y="-8"
     inkscape:window-maximized="1"
     inkscape:current-layer="g583"><inkscape:grid
       type="xygrid"
       id="grid1687"
       originx="-169.84322"
       originy="-350.92088" /></sodipodi:namedview><g
     id="g583"
     inkscape:groupmode="layer"
     inkscape:label="options"
     transform="matrix(1.3333333,0,0,-1.3333333,-169.84322,716.97379)"><g
       id="g1139"
       transform="matrix(1.3131123,0,0,-1.3116716,217.70573,263.79383)"
       style="fill:#006585;fill-opacity:1"><path
         d="m 0,0 h 7.737 v -44.804 h -7.74 z"
         style="fill:#006585;fill-opacity:1;fill-rule:nonzero;stroke:none"
         id="path1141"
         inkscape:connector-curvature="0" /></g><g
       id="g1143"
       transform="matrix(1.3131123,0,0,-1.3116716,181.68618,322.56163)"
       style="fill:#006585;fill-opacity:1"><path
         d="M 0,0 -13.14,38.007 -25.936,21.864 -8.877,0.015 h -8.909 L -33.615,21.281 V 0 h -7.74 l 0.003,44.804 h 7.737 v -22.09 l 16.394,22.093 h 1.732 l -0.015,0.041 h 7.57 l 4.152,-12.935 h 16.427 l 4.306,12.891 h 8.074 L 9.58,0 Z M -1.775,25.658 4.178,7.104 h 0.181 l 6.197,18.554 z"
         style="fill:#006585;fill-opacity:1;fill-rule:nonzero;stroke:none"
         id="path1145"
         inkscape:connector-curvature="0" /></g><g
       id="g1147"
       transform="matrix(1.3131123,0,0,-1.3116716,557.43513,280.03339)"
       style="fill:#006585;fill-opacity:1"><path
         d="M 0,0 -7.767,-32.449 H -21.29 v 44.792 h 7.598 v -38.197 l 9.816,38.197 h 7.767 c 0.096,0 9.773,-38.13 9.773,-38.13 v 38.133 h 7.541 V -32.455 H 7.969 Z"
         style="fill:#006585;fill-opacity:1;fill-rule:nonzero;stroke:none"
         id="path1149"
         inkscape:connector-curvature="0" /></g><g
       id="g1151"
       transform="matrix(1.3131123,0,0,-1.3116716,610.77771,322.63453)"
       style="fill:#006585;fill-opacity:1"><path
         d="m 0,0 -15.504,44.848 h 7.57 l 4.152,-12.935 h 16.447 l 4.333,12.941 h 8.075 L 9.58,0 Z M -1.775,25.658 4.178,7.104 h 0.181 l 6.211,18.554 z"
         style="fill:#006585;fill-opacity:1;fill-rule:nonzero;stroke:none"
         id="path1153"
         inkscape:connector-curvature="0" /></g><g
       id="g1155"
       transform="matrix(1.3131123,0,0,-1.3116716,684.92881,277.25515)"
       style="fill:#006585;fill-opacity:1"><path
         d="m 0,0 -17.801,-34.6 -10.204,0.044 0.023,44.781 h 7.32 V -23.54 L -3.108,10.225 H 7.462 V -34.606 H 0 Z"
         style="fill:#006585;fill-opacity:1;fill-rule:nonzero;stroke:none"
         id="path1157"
         inkscape:connector-curvature="0" /></g><g
       id="g1159"
       transform="matrix(1.3131123,0,0,-1.3116716,877.35618,272.39016)"
       style="fill:#006585;fill-opacity:1"><path
         d="m 0,0 h -18.381 v -12.651 h 13.608 v -6.5 l -13.608,-0.006 v -12.672 c 1.77,0.039 16.825,0 16.825,0 v -6.497 c -4.567,-0.011 -24.486,0.029 -24.486,0.029 L -26.048,6.527 0.02,6.536 Z"
         style="fill:#006585;fill-opacity:1;fill-rule:nonzero;stroke:none"
         id="path1161"
         inkscape:connector-curvature="0" /></g><g
       id="g1163"
       transform="matrix(1.3131123,0,0,-1.3116716,784.79331,322.66154)"
       style="fill:#006585;fill-opacity:1"><path
         d="M 0,0 0.009,0.011 H -1.409 V 34.98 L -19.208,0.038 H -29.402 V 38.326 H -52.89 V 25.675 h 13.609 v -6.5 L -52.89,19.169 V 6.497 c 1.77,0.039 16.826,0 16.826,0 V 0 c -4.568,-0.011 -24.487,0.029 -24.487,0.029 l -0.006,44.825 37.89,-0.009 v -0.003 h 0.598 V 10.723 L -4.518,44.842 H 6.053 V 6.813 h 13.596 v 38.049 h 7.762 V 6.813 H 40.675 L 40.629,0 Z"
         style="fill:#006585;fill-opacity:1;fill-rule:nonzero;stroke:none"
         id="path1165"
         inkscape:connector-curvature="0" /></g><g
       id="g1167"
       transform="matrix(1.3131123,0,0,-1.3116716,514.77568,293.41786)"
       style="fill:#006585;fill-opacity:1"><path
         d="m 0,0 c 2.424,-2.109 4.254,-5.394 4.254,-9.539 0,-4.146 -1.744,-7.354 -4.169,-9.466 -2.704,-2.355 -6.513,-3.246 -12.973,-3.246 h -12.996 v 18.93 h -0.018 V 16.031 H -49.547 V 3.38 h 13.606 v -6.5 l -13.606,-0.006 v -12.672 c 1.768,0.039 16.824,0 16.824,0 l 10e-4,-6.497 c -4.567,-0.011 -24.489,0.029 -24.489,0.029 L -57.217,22.559 -18.12,22.55 V 3.513 h 3.841 c 3.55,5.59 11.094,19.104 11.094,19.104 H 6.053 L -5.988,2.877 C -3.442,2.308 -1.553,1.354 0,0 m -18.12,-3.053 v -0.268 -12.365 h 6.533 c 5.845,0 8.227,2.303 8.227,6.229 0,4.31 -2.335,6.404 -8.227,6.404 z"
         style="fill:#006585;fill-opacity:1;fill-rule:nonzero;stroke:none"
         id="path1169"
         inkscape:connector-curvature="0" /></g><g
       id="g1171"
       transform="matrix(1.3131123,0,0,-1.3116716,354.44382,293.41786)"
       style="fill:#006585;fill-opacity:1"><path
         d="m 0,0 c 2.423,-2.109 4.254,-5.394 4.254,-9.539 0,-4.146 -1.746,-7.354 -4.169,-9.466 -2.704,-2.355 -6.513,-3.246 -12.973,-3.246 h -12.996 v 18.93 h -0.02 V 16.031 H -49.548 V 3.38 h 13.607 v -6.5 l -13.607,-0.006 v -12.672 c 1.768,0.039 16.823,0 16.823,0 l 0.001,-6.497 c -4.565,-0.011 -24.487,0.029 -24.487,0.029 L -57.217,22.559 -18.12,22.55 V 3.513 h 3.838 c 3.553,5.59 11.095,19.104 11.095,19.104 h 9.24 L -5.991,2.877 C -3.442,2.308 -1.553,1.354 0,0 m -18.12,-3.053 v -0.268 -12.365 h 6.533 c 5.845,0 8.227,2.303 8.227,6.229 0,4.31 -2.335,6.404 -8.227,6.404 z"
         style="fill:#006585;fill-opacity:1;fill-rule:nonzero;stroke:none"
         id="path1173"
         inkscape:connector-curvature="0" /></g><g
       id="g1175"
       transform="matrix(1.3131123,0,0,-1.3116716,427.86139,318.18849)"
       style="fill:#006585;fill-opacity:1"><path
         d="M 0,0 C -2.705,-2.355 -6.512,-3.366 -12.974,-3.366 H -25.97 v 26.393 h 0.003 V 41.47 h 7.77 V 23.027 h 5.223 c 6.462,0 10.21,-1.133 12.914,-3.489 C 2.363,17.426 4.17,13.913 4.17,9.768 4.17,5.622 2.425,2.112 0,0 m -11.673,16.46 h -6.53 V 3.199 h 6.53 c 5.845,0 8.23,2.605 8.23,6.53 0,4.076 -2.663,6.731 -8.23,6.731"
         style="fill:#006585;fill-opacity:1;fill-rule:nonzero;stroke:none"
         id="path1177"
         inkscape:connector-curvature="0" /></g><g
       id="g1179"
       transform="matrix(1.3131123,0,0,-1.3116716,257.52249,298.10605)"
       style="fill:#006585;fill-opacity:1"><path
         d="m 0,0 c -6.076,-2.25 -8.965,-3.932 -8.965,-7.465 0,-2.688 2.713,-5.765 8.107,-5.765 3.928,0 7.751,1.338 9.656,2.349 v -6.451 c -1.984,-0.967 -5.713,-2.086 -9.485,-2.086 -9.605,0 -16.214,5.42 -16.214,12.7 0,6.477 4.968,10.387 12.484,12.973 5.835,2.054 8.302,4.107 8.302,7.585 0,3.785 -3.211,6.445 -8.57,6.445 -4.239,0 -9.492,-1.415 -12.232,-3.272 v 6.981 c 2.611,1.427 7.231,2.625 11.69,2.625 11.576,0 17.045,-6.24 17.045,-13.324 C 11.818,6.744 7.828,2.918 0,0"
         style="fill:#006585;fill-opacity:1;fill-rule:nonzero;stroke:none"
         id="path1181"
         inkscape:connector-curvature="0" /></g><g
       id="g1063"
       transform="matrix(2.0101421,0,0,-2.0079367,523.61979,489.82774)"
       style="fill:#006585;fill-opacity:1"><path
         d="M 0,0 C -0.94,-0.753 -2.095,-1.562 -3.251,-1.913 L -5.101,35.467 4.192,9.633 C 5.067,5.692 2.877,2.438 0,0"
         style="fill:#006585;fill-opacity:1;fill-rule:nonzero;stroke:none"
         id="path1065"
         inkscape:connector-curvature="0" /></g><g
       id="g1067"
       transform="matrix(2.0101421,0,0,-2.0079367,492.76066,494.35755)"
       style="fill:#006585;fill-opacity:1"><path
         d="M 0,0 5.467,37.304 10.784,0.029 C 7.677,-1.189 3.589,-1.354 0,0"
         style="fill:#006585;fill-opacity:1;fill-rule:nonzero;stroke:none"
         id="path1069"
         inkscape:connector-curvature="0" /></g><g
       id="g1071"
       transform="matrix(2.0101421,0,0,-2.0079367,483.68031,489.90433)"
       style="fill:#006585;fill-opacity:1"><path
         d="M 0,0 C -2.878,2.44 -5.068,5.695 -4.193,9.636 L 5.1,35.47 3.249,-1.913 C 2.093,-1.559 0.937,-0.75 0,0"
         style="fill:#006585;fill-opacity:1;fill-rule:nonzero;stroke:none"
         id="path1073"
         inkscape:connector-curvature="0" /></g><g
       id="g1075"
       transform="matrix(2.0101421,0,0,-2.0079367,446.06046,482.78235)"
       style="fill:#006585;fill-opacity:1"><path
         d="M 0,0 C 6.194,10.887 12.52,22.545 18.715,32.994 16.524,23.857 14.291,8.685 11.126,4.426 7.466,-0.708 0,0 0,0"
         style="fill:#006585;fill-opacity:1;fill-rule:nonzero;stroke:none"
         id="path1077"
         inkscape:connector-curvature="0" /></g><g
       id="g1079"
       transform="matrix(2.0101421,0,0,-2.0079367,423.93885,471.80935)"
       style="fill:#006585;fill-opacity:1"><path
         d="M 0,0 25.401,29.453 9.652,-5.306 C 5.556,-5.156 2.093,-3.057 0,0"
         style="fill:#006585;fill-opacity:1;fill-rule:nonzero;stroke:none"
         id="path1081"
         inkscape:connector-curvature="0" /></g><g
       id="g1083"
       transform="matrix(2.0101421,0,0,-2.0079367,530.75138,455.82617)"
       style="fill:#006585;fill-opacity:1"><path
         d="M 0,0 -4.21,20.194 C 1.234,10.77 6.577,1.476 11.809,-7.96 6.788,-7.585 1.654,-5.646 0,0"
         style="fill:#006585;fill-opacity:1;fill-rule:nonzero;stroke:none"
         id="path1085"
         inkscape:connector-curvature="0" /></g><g
       id="g1087"
       transform="matrix(2.0101421,0,0,-2.0079367,557.50556,471.80935)"
       style="fill:#006585;fill-opacity:1"><path
         d="M 0,0 -13.389,29.921 10.137,4.207 C 7.446,1.375 3.943,0.062 0,0"
         style="fill:#006585;fill-opacity:1;fill-rule:nonzero;stroke:none"
         id="path1089"
         inkscape:connector-curvature="0" /></g><g
       id="g1091"
       transform="matrix(2.0101421,0,0,-2.0079367,417.34921,445.0494)"
       style="fill:#006585;fill-opacity:1"><path
         d="M 0,0 C 8.26,6.381 16.48,12.949 24.801,19.284 L 2.464,-12.328 C 0.399,-8.76 -0.207,-4.588 0,0"
         style="fill:#006585;fill-opacity:1;fill-rule:nonzero;stroke:none"
         id="path1093"
         inkscape:connector-curvature="0" /></g><g
       id="g1095"
       transform="matrix(2.0101421,0,0,-2.0079367,583.67701,455.99685)"
       style="fill:#006585;fill-opacity:1"><path
         d="M 0,0 C -0.501,-1.002 -1.087,-1.925 -1.963,-2.713 L -22.216,25.082 C -14.175,19.063 -6.384,12.92 1.374,6.789 1.453,4.371 1.063,2.001 0,0"
         style="fill:#006585;fill-opacity:1;fill-rule:nonzero;stroke:none"
         id="path1097"
         inkscape:connector-curvature="0" /></g><g
       id="g1099"
       transform="matrix(2.0101421,0,0,-2.0079367,417.46479,419.24999)"
       style="fill:#006585;fill-opacity:1"><path
         d="M 0,0 21.614,9.988 C 14.459,2.831 7.223,-4.115 -0.006,-11.161 Z"
         style="fill:#006585;fill-opacity:1;fill-rule:nonzero;stroke:none"
         id="path1101"
         inkscape:connector-curvature="0" /></g><g
       id="g1103"
       transform="matrix(2.0101421,0,0,-2.0079367,586.46228,417.78344)"
       style="fill:#006585;fill-opacity:1"><path
         d="M 0,0 0.002,-10.187 -20.411,9.633 C -13.471,6.46 -7.074,3.352 0,0"
         style="fill:#006585;fill-opacity:1;fill-rule:nonzero;stroke:none"
         id="path1105"
         inkscape:connector-curvature="0" /></g><g
       id="g1107"
       transform="matrix(2.0101421,0,0,-2.0079367,417.34921,399.35299)"
       style="fill:#006585;fill-opacity:1"><path
         d="M 0,0 C 6.508,1.44 13.601,3.27 19.483,4.535 L 0,-8.353 Z"
         style="fill:#006585;fill-opacity:1;fill-rule:nonzero;stroke:none"
         id="path1109"
         inkscape:connector-curvature="0" /></g><g
       id="g1111"
       transform="matrix(2.0101421,0,0,-2.0079367,586.46228,398.15879)"
       style="fill:#006585;fill-opacity:1"><path
         d="m 0,0 0.002,-7.837 c -6.115,3.905 -12.465,7.933 -18.131,11.98 z"
         style="fill:#006585;fill-opacity:1;fill-rule:nonzero;stroke:none"
         id="path1113"
         inkscape:connector-curvature="0" /></g><g
       id="g1115"
       transform="matrix(2.0101421,0,0,-2.0079367,417.34921,379.72276)"
       style="fill:#006585;fill-opacity:1"><path
         d="M 0,0 H 19.021 L 0,-8.159 Z"
         style="fill:#006585;fill-opacity:1;fill-rule:nonzero;stroke:none"
         id="path1117"
         inkscape:connector-curvature="0" /></g><g
       id="g1119"
       transform="matrix(2.0101421,0,0,-2.0079367,586.46228,379.72276)"
       style="fill:#006585;fill-opacity:1"><path
         d="M 0,0 0.002,-7.427 C -6.246,-4.731 -11.689,-2.502 -17.598,0 Z"
         style="fill:#006585;fill-opacity:1;fill-rule:nonzero;stroke:none"
         id="path1121"
         inkscape:connector-curvature="0" /></g><g
       id="g1123"
       transform="matrix(2.0101421,0,0,-2.0079367,573.24156,491.69253)"
       style="fill:#006585;fill-opacity:1"><path
         d="M 0,0 C 0.218,-11.408 -16.573,-11.484 -16.265,-0.103 -16.419,10.409 0.401,11.007 0,0"
         style="fill:#006585;fill-opacity:1;fill-rule:nonzero;stroke:none"
         id="path1125"
         inkscape:connector-curvature="0" /></g><g
       id="g1127"
       transform="matrix(2.0101421,0,0,-2.0079367,573.24156,491.82207)"
       style="fill:#006585;fill-opacity:1"><path
         d="M 0,0 C 0.001,0.023 0,0.041 0,0.064 V 0.078 Z"
         style="fill:#006585;fill-opacity:1;fill-rule:nonzero;stroke:none"
         id="path1129"
         inkscape:connector-curvature="0" /></g><g
       id="g1131"
       transform="matrix(2.0101421,0,0,-2.0079367,463.96338,503.57554)"
       style="fill:#006585;fill-opacity:1"><path
         d="M 0,0 C 0.536,-11.455 -17.2,-10.992 -16.518,0.021 -17.124,11.393 1.078,11.555 0,0"
         style="fill:#006585;fill-opacity:1;fill-rule:nonzero;stroke:none"
         id="path1133"
         inkscape:connector-curvature="0" /></g><g
       id="g1135"
       transform="matrix(2.0101421,0,0,-2.0079367,503.77387,499.15187)"
       style="fill:#006585;fill-opacity:1"><path
         d="M 0,0 C 6.586,0.187 9.214,-4.667 9.392,-9.205 9.671,-16.26 5.267,-19.213 0.02,-19.213 c -5.247,0 -9.512,3.141 -9.242,10.014 C -9.072,-5.391 -7.444,-0.214 0,0"
         style="fill:#006585;fill-opacity:1;fill-rule:nonzero;stroke:none"
         id="path1137"
         inkscape:connector-curvature="0" /></g></g></svg>