<svg version="1.1" id="Layer_1" xmlns="http://www.w3.org/2000/svg" xmlns:xlink="http://www.w3.org/1999/xlink" x="0px" y="0px"
	 width="1217.477px" height="609.778px" viewBox="0 0 1217.477 609.778" enable-background="new 0 0 1217.477 609.778"
	 xml:space="preserve">
<path fill="#023F88" d="M907.457,358.937l168.301,111.932l-73.989-176.448l155.403-129.411h-143.37H966.85L907.552,0l-54.581,165.01
	h-29.492L764.182,0l-55.07,165.01h-26.955L622.859,0l-54.033,162.279l30.04,15.02l25.529-96.653l31.819,115.769h127.668
	l-113.659,83.413l53.581,111.162l-100.945-68.919l-0.096,36.866l168.301,111.932l-73.989-176.448l117.69-98.006h90.441
	l-113.661,83.413l53.581,111.162l-100.944-68.919l-0.096,36.866l168.301,111.932l-73.991-176.448l117.691-98.006h92.488
	l-113.659,83.413l53.579,111.162l-100.943-68.919L907.457,358.937z M743.434,165.01l22.284-84.364l23.187,84.364H743.434z
	 M886.804,165.01l22.284-84.364l23.188,84.364H886.804z"/>
<polygon fill="none" points="60.195,139.85 60.97,139.471 60.195,139.85 "/>
<polygon fill="none" points="36.042,240.848 35.268,241.226 35.268,241.227 "/>
<polygon fill="none" points="12.14,340.86 11.365,341.238 11.364,341.239 "/>
<path fill="#C4122F" d="M573.323,145.638c-27.69-11.306-66.888-22.637-113.281-22.647c-43.094-0.025-92.392,9.906-143.373,38.463
	c-57.36,32.09-102.697,42.9-137.863,42.9c-21.95-0.011-40.057-4.18-55.119-10.334c-22.554-9.23-38.371-23.097-48.56-34.678
	c-5.085-5.778-8.736-10.962-11.06-14.597c-1.16-1.817-1.988-3.246-2.501-4.166c-0.254-0.459-0.432-0.792-0.531-0.982
	c-0.027-0.054-0.049-0.096-0.064-0.126l-0.775,0.379L48.83,174.704c4.867,5.953,11.021,12.599,18.621,19.279
	c11.504,10.092,26.347,20.22,44.872,27.8c18.496,7.583,40.656,12.571,66.419,12.571c0.022,0,0.042,0,0.064,0
	c41.416,0,91.846-12.763,152.514-46.72c46.408-25.944,90.16-34.616,128.722-34.641c41.455-0.01,76.92,10.192,101.934,20.418
	c12.501,5.106,22.372,10.206,29.03,13.973c1.675,0.948,3.146,1.811,4.405,2.569l8-30
	C595.953,155.841,585.803,150.741,573.323,145.638z"/>
<path fill="#C0223D" d="M60.97,139.471c-0.024-0.049-0.024-0.049-0.024-0.049l-0.731,0.369l-0.02,0.06L60.97,139.471z"/>
<polygon fill="#FFFFFF" points="60.195,139.85 60.215,139.791 57.001,141.411 "/>
<path fill="#C4122F" d="M548.397,247.014c-27.689-11.307-66.888-22.638-113.283-22.646c-43.094-0.025-92.393,9.905-143.374,38.462
	c-57.362,32.09-102.698,42.899-137.862,42.899c-21.95-0.008-40.058-4.18-55.118-10.333c-22.556-9.229-38.374-23.098-48.561-34.679
	c-5.084-5.779-8.737-10.962-11.06-14.598c-1.16-1.815-1.989-3.246-2.502-4.165c-0.255-0.459-0.431-0.792-0.53-0.981
	c-0.049-0.095-0.08-0.155-0.091-0.175l-0.73,0.368l-0.02,0.06l0.775-0.378l-0.775,0.379l-11.365,34.853
	c4.867,5.954,11.021,12.6,18.622,19.28c11.504,10.093,26.348,20.218,44.87,27.801c18.498,7.58,40.657,12.57,66.42,12.57
	c0.022,0,0.042,0,0.064,0c41.416,0,91.844-12.764,152.512-46.719c46.412-25.944,90.161-34.617,128.724-34.643
	c41.455-0.008,76.923,10.193,101.937,20.418c12.5,5.107,22.37,10.206,29.029,13.974c1.674,0.948,3.145,1.81,4.404,2.567l8-29.999
	C571.026,257.216,560.876,252.116,548.397,247.014z"/>
<polygon fill="#FFFFFF" points="35.268,241.226 35.287,241.167 32.073,242.787 "/>
<path fill="#C4122F" d="M524.494,347.024c-27.69-11.304-66.887-22.635-113.282-22.644c-43.094-0.027-92.392,9.904-143.375,38.463
	c-57.36,32.089-102.694,42.898-137.861,42.898c-21.95-0.009-40.057-4.18-55.117-10.334c-22.555-9.23-38.374-23.098-48.562-34.679
	c-5.084-5.779-8.736-10.963-11.06-14.596c-1.16-1.816-1.989-3.246-2.5-4.165c-0.256-0.459-0.433-0.792-0.532-0.983
	c-0.048-0.094-0.079-0.154-0.089-0.175l-0.731,0.368l-0.02,0.06l0.775-0.378l-0.776,0.379L0,376.09
	c4.867,5.953,11.021,12.6,18.621,19.28c11.506,10.093,26.348,20.219,44.873,27.801c18.492,7.58,40.647,12.569,66.402,12.57
	c0.028,0,0.052,0,0.08,0c41.415,0,91.845-12.762,152.512-46.719c46.411-25.945,90.162-34.618,128.724-34.643
	c41.454-0.011,76.922,10.192,101.934,20.418c12.502,5.106,22.372,10.205,29.032,13.973c1.674,0.948,3.145,1.811,4.404,2.568l8-30
	C547.123,357.228,536.974,352.127,524.494,347.024z"/>
<polygon fill="#FFFFFF" points="11.365,341.238 11.384,341.178 8.17,342.797 "/>
<polygon fill="#C4122F" points="45.598,609.665 24.899,609.665 24.899,547.568 7.791,547.568 7.791,530.038 62.706,530.038 
	62.706,547.568 45.598,547.568 "/>
<path fill="#C4122F" d="M265.533,608.665h-25.767l-19.538-30.626h-0.211v30.626h-20.699v-79.627h30.943
	c15.735,0,27.669,7.498,27.669,24.501c0,10.982-6.125,20.487-17.425,22.494L265.533,608.665z M220.017,564.732h2.006
	c6.759,0,14.363-1.267,14.363-9.927c0-8.659-7.604-9.927-14.363-9.927h-2.006V564.732z"/>
<rect x="383.575" y="529.037" fill="#C4122F" width="20.699" height="79.627"/>
<path fill="#C4122F" d="M590.037,554.756c-4.225-5.703-11.09-8.766-18.165-8.766c-12.673,0-21.227,9.716-21.227,22.071
	c0,12.567,8.66,21.649,21.544,21.649c6.758,0,13.518-3.273,17.848-8.448v24.817c-6.865,2.112-11.828,3.697-18.271,3.697
	c-11.088,0-21.649-4.226-29.886-11.724c-8.765-7.92-12.779-18.27-12.779-30.098c0-10.877,4.119-21.332,11.723-29.147
	c7.815-8.025,19.114-12.884,30.309-12.884c6.653,0,12.778,1.479,18.904,4.014V554.756z"/>
<path fill="#C4122F" d="M743.373,595.832l-5.49,13.834h-21.967l30.625-79.628h22.6l29.992,79.628h-22.07l-5.176-13.834H743.373z
	 M757.841,554.644h-0.211l-8.555,25.345h17.215L757.841,554.644z"/>
<path fill="#C4122F" d="M987.296,608.665h-25.768l-19.537-30.626h-0.211v30.626h-20.699v-79.627h30.943
	c15.734,0,27.668,7.498,27.668,24.501c0,10.982-6.125,20.487-17.424,22.494L987.296,608.665z M941.781,564.732h2.006
	c6.76,0,14.363-1.267,14.363-9.927c0-8.659-7.604-9.927-14.363-9.927h-2.006V564.732z"/>
<polygon fill="#C4122F" points="1133.218,546.568 1133.218,559.875 1156.556,559.875 1156.556,577.405 1133.218,577.405 
	1133.218,591.134 1157.824,591.134 1157.824,608.665 1112.519,608.665 1112.519,529.038 1157.824,529.038 1157.824,546.568 "/>
<path fill="#C4122F" d="M1197.228,528.169c3.4,0,6.723,0.873,9.963,2.617c3.241,1.746,5.766,4.244,7.574,7.494
	c1.808,3.248,2.712,6.637,2.712,10.164c0,3.491-0.892,6.848-2.672,10.07c-1.782,3.223-4.279,5.725-7.493,7.506
	c-3.214,1.782-6.575,2.673-10.084,2.673s-6.871-0.891-10.084-2.673c-3.214-1.781-5.716-4.283-7.506-7.506
	c-1.791-3.223-2.686-6.579-2.686-10.07c0-3.527,0.908-6.916,2.726-10.164c1.816-3.25,4.346-5.748,7.587-7.494
	C1190.505,529.042,1193.827,528.169,1197.228,528.169 M1197.228,531.526c-2.847,0-5.617,0.729-8.311,2.188
	c-2.696,1.459-4.804,3.545-6.326,6.258c-1.521,2.712-2.282,5.537-2.282,8.473c0,2.918,0.747,5.716,2.242,8.393
	c1.495,2.676,3.585,4.762,6.271,6.258c2.686,1.494,5.488,2.242,8.406,2.242s5.721-0.748,8.406-2.242
	c2.686-1.496,4.771-3.582,6.257-6.258c1.487-2.677,2.229-5.475,2.229-8.393c0-2.936-0.757-5.761-2.27-8.473
	c-1.514-2.713-3.621-4.799-6.324-6.258C1202.823,532.255,1200.057,531.526,1197.228,531.526 M1188.339,559.644v-21.807h7.492
	c2.561,0,4.413,0.201,5.559,0.604c1.146,0.402,2.06,1.105,2.74,2.108c0.68,1.003,1.02,2.067,1.02,3.196
	c0,1.594-0.568,2.979-1.705,4.162c-1.137,1.182-2.645,1.844-4.525,1.987c0.771,0.322,1.388,0.708,1.854,1.155
	c0.877,0.859,1.951,2.3,3.223,4.323l2.658,4.271h-4.297l-1.934-3.438c-1.521-2.703-2.748-4.396-3.679-5.076
	c-0.645-0.501-1.585-0.752-2.819-0.752h-2.068v9.266H1188.339z M1191.857,547.371h4.27c2.041,0,3.434-0.305,4.177-0.913
	c0.741-0.608,1.114-1.414,1.114-2.417c0-0.645-0.179-1.223-0.537-1.733c-0.358-0.509-0.855-0.89-1.49-1.14
	c-0.637-0.251-1.813-0.377-3.531-0.377h-4.002V547.371z"/>
</svg>
