<?xml version="1.0" encoding="utf-8"?>
<svg width="800px" height="800px" viewBox="0 0 1024 1024" class="icon"  version="1.1" xmlns="http://www.w3.org/2000/svg">
<path d="M99 331.8h210.5v68.6H99zM739.9 331.8h210.5v68.6H739.9zM546.9 557.8v-24.3c0-3.6-3-6.6-6.6-6.6h-43.9c-3.6 0-6.6 3-6.6 6.6v21.7c0 10-8.1 18.2-18.2 18.2h-20.9c-3.6 0-6.6 3-6.6 6.6v43.9c0 3.6 3 6.6 6.6 6.6h12.5c4.3 0 11 3.5 11 7.8l0.8 32.4c0 8 2.4 14.5 10.4 14.5h10.2c3.3 0 6.3 1.1 8.7-0.5 0.3-0.2 0.6-0.3 0.9-0.3h32.5c5 0 9.1-4.1 9.1-9.1v-27.7c0-9.5 7.7-17.1 17.1-17.1h28.5c3.6 0 6.6-3 6.6-6.6V572c0-6.9-5.6-12.5-12.5-12.5h-38c-0.8 0-1.6-0.8-1.6-1.7z" fill="#00a0aa" />
<path d="M536.6 690.1H487c-8.1 0-14.6-6.6-14.6-14.6v-31.9c0-3.6-3-6.6-6.6-6.6H434c-8.1 0-14.6-6.6-14.6-14.6v-49.6c0-8.1 6.6-14.6 14.6-14.6h0.6v8h-0.6c-3.6 0-6.6 3-6.6 6.6v49.6c0 3.6 3 6.6 6.6 6.6h31.9c8.1 0 14.6 6.6 14.6 14.6v31.9c0 3.6 3 6.6 6.6 6.6h49.6c3.7 0 6.6-3 6.6-6.6v-31.9c0-8.1 6.6-14.6 14.6-14.6h31.9c3.6 0 6.6-3 6.6-6.6v-49.6c0-3.6-3-6.6-6.6-6.6h-31.9c-8.1 0-14.6-6.6-14.6-14.6v-31.9c0-3.6-3-6.6-6.6-6.6h-49.6c-3.6 0-6.6 3-6.6 6.6v31.9c0 8.1-6.6 14.6-14.6 14.6h-8v-8h8c3.6 0 6.6-3 6.6-6.6v-31.9c0-8.1 6.6-14.6 14.6-14.6h49.6c8.1 0 14.6 6.6 14.6 14.6v31.9c0 3.6 3 6.6 6.6 6.6h31.9c8.1 0 14.6 6.6 14.6 14.6v49.6c0 8.1-6.6 14.6-14.6 14.6h-31.9c-3.6 0-6.6 3-6.6 6.6v31.9c-0.1 8-6.6 14.6-14.7 14.6z" fill="#00a0aa" />
<path d="M511.4 479.8c31.4 0 61 12.2 83.3 34.5 22.2 22.2 34.5 51.8 34.5 83.3s-12.2 61-34.5 83.3c-22.2 22.2-51.8 34.5-83.3 34.5s-61-12.2-83.3-34.5c-22.2-22.2-34.5-51.8-34.5-83.3s12.2-61 34.5-83.3c22.3-22.2 51.9-34.5 83.3-34.5m0-15c-73.3 0-132.7 59.4-132.7 132.7s59.4 132.7 132.7 132.7 132.7-59.4 132.7-132.7-59.4-132.7-132.7-132.7z" fill="#999999" />
<path d="M798.7 836.5H218.8c-26.2 0-47.5-21.3-47.5-47.5V603c0-53.9 21.1-104.7 59.5-143 38.4-38.4 89.1-59.5 143-59.5h269.9c53.9 0 104.7 21.1 143 59.5 38.4 38.4 59.5 89.1 59.5 143v186c0 26.2-21.3 47.5-47.5 47.5zM373.8 415.6c-49.9 0-96.9 19.6-132.4 55.1s-55.1 82.5-55.1 132.4v186c0 17.9 14.6 32.5 32.5 32.5h579.9c17.9 0 32.5-14.6 32.5-32.5v-186c0-49.9-19.6-96.9-55.1-132.4s-82.5-55.1-132.4-55.1H373.8z" fill="#999999" />
<path d="M178.8 768.3h659.9v8H178.8zM936.2 409H728.1c-12 0-21.7-9.7-21.7-21.6v-67.6l-7.5-8c-3-3.2-7.3-5.1-11.8-5.1H336.3c-4.4 0-8.7 1.9-11.8 5.1l-7.5 8v67.6c0 11.9-9.7 21.6-21.7 21.6H87.2c-12 0-21.7-9.7-21.7-21.6v-65.8c0-11.9 9.7-21.6 21.7-21.6h47.3l79.3-95.7c5.9-7.2 14.7-11.3 24-11.3h547.8c9.3 0 18 4.1 24 11.3l79.3 95.7h47.3c12 0 21.7 9.7 21.7 21.6v65.8c0 12-9.7 21.6-21.7 21.6zM336.3 291.8h350.8c8.6 0 16.8 3.6 22.7 9.8l11.6 12.3v73.5c0 3.6 3 6.6 6.7 6.6h208.1c3.7 0 6.7-3 6.7-6.6v-65.8c0-3.6-3-6.6-6.7-6.6h-54.4L798 213.9c-3.1-3.7-7.6-5.8-12.4-5.8H237.8c-4.8 0-9.4 2.1-12.4 5.8L141.5 315H87.2c-3.7 0-6.7 3-6.7 6.6v65.8c0 3.6 3 6.6 6.7 6.6h208.1c3.7 0 6.7-3 6.7-6.6v-73.5l11.6-12.3c5.8-6.2 14.1-9.8 22.7-9.8z" fill="#999999" />
<path d="M570.6 415H452.8V293h117.9v122z m-102.8-15h87.9v-92h-87.9v92zM138 306.7h91.1v8H138zM793.2 306.7h91.1v8h-91.1zM271.6 306.7h37.8v8h-37.8zM715.1 306.7h37.8v8h-37.8z" fill="#999999" /></svg>